<svg width="31" height="23" viewBox="0 0 31 23" fill="none" xmlns="http://www.w3.org/2000/svg">
<path d="M30.1104 9.56982C30.5044 8.84107 30.233 7.93092 29.5042 7.53695L17.6286 1.11672C16.8998 0.722744 15.9897 0.99413 15.5957 1.72288C15.2017 2.45163 15.4731 3.36177 16.2019 3.75575L26.758 9.46262L21.0511 20.0187C20.6571 20.7475 20.9285 21.6576 21.6573 22.0516C22.386 22.4456 23.2962 22.1742 23.6902 21.4455L30.1104 9.56982ZM1.42862 18.5805L29.2195 10.2939L28.3622 7.419L0.571383 15.7056L1.42862 18.5805Z" fill="url(#paint0_linear_551_1086)"/>
<path d="M30.1104 9.56982C30.5044 8.84107 30.233 7.93092 29.5042 7.53695L17.6286 1.11672C16.8998 0.722744 15.9897 0.99413 15.5957 1.72288C15.2017 2.45163 15.4731 3.36177 16.2019 3.75575L26.758 9.46262L21.0511 20.0187C20.6571 20.7475 20.9285 21.6576 21.6573 22.0516C22.386 22.4456 23.2962 22.1742 23.6902 21.4455L30.1104 9.56982ZM1.42862 18.5805L29.2195 10.2939L28.3622 7.419L0.571383 15.7056L1.42862 18.5805Z" fill="black" fill-opacity="0.2"/>
<defs>
<linearGradient id="paint0_linear_551_1086" x1="1.14287" y1="17.6222" x2="15.1537" y2="13.9141" gradientUnits="userSpaceOnUse">
<stop stop-color="#5C9DFF"/>
<stop offset="1" stop-color="#1371FF"/>
</linearGradient>
</defs>
</svg>
