<svg width="40" height="39" viewBox="0 0 40 39" fill="none" xmlns="http://www.w3.org/2000/svg">
<path d="M38.3303 36.8533C38.6529 36.8533 38.9582 36.708 39.1614 36.4572C39.3646 36.2065 39.4438 35.8777 39.3772 35.5621L38.7033 32.3734C39.0871 32.0021 39.3283 31.4838 39.3283 30.9075C39.3283 30.3009 39.0581 29.7628 38.6387 29.3889V18.3155L35.9376 19.9871V29.3889C35.5182 29.7628 35.2479 30.3009 35.2479 30.9075C35.2479 31.4839 35.4892 32.0022 35.873 32.3734L35.1991 35.5621C35.1324 35.8778 35.2118 36.2066 35.4149 36.4572C35.6181 36.7079 35.9233 36.8533 36.246 36.8533H38.3303ZM39.2458 11.8538L21.6737 0.976133C21.159 0.659133 20.5789 0.5 19.9988 0.5C19.4186 0.5 18.8381 0.659 18.3266 0.976133L0.754199 11.8538C0.28498 12.1441 0 12.6569 0 13.2088C0 13.7608 0.28498 14.2738 0.754199 14.5646L18.3265 25.4424C18.838 25.7597 19.4185 25.9185 19.9987 25.9185C20.5788 25.9185 21.159 25.7595 21.6736 25.4424L39.2458 14.5646C39.715 14.2739 40 13.7608 40 13.2088C40 12.6569 39.715 12.144 39.2458 11.8538ZM19.9987 28.6194C18.9041 28.6194 17.8358 28.3154 16.9045 27.7391L6.65454 21.3935V32.32C6.65454 35.5539 12.6317 38.1717 19.9987 38.1717C27.3683 38.1717 33.345 35.5538 33.345 32.32V21.3935L23.0954 27.7391C22.1642 28.3154 21.0933 28.6194 19.9987 28.6194Z" fill="white"/>
</svg>
