<svg width="40" height="41" viewBox="0 0 40 41" fill="none" xmlns="http://www.w3.org/2000/svg">
<g clip-path="url(#clip0_449_1669)">
<path d="M3.5913 40.3998H14.4974C12.9677 39.3192 11.6214 38.0226 10.4739 36.5264H3.59121C2.5273 36.5264 1.6626 37.391 1.6626 38.455C1.6626 38.9704 1.86226 39.4692 2.22778 39.8184C2.59368 40.2006 3.0758 40.3998 3.5913 40.3998Z" fill="white"/>
<path d="M25.0372 40.4339C33.2834 40.4339 39.9998 33.7175 39.9998 25.4713C39.9998 17.2252 33.2834 10.5088 25.0372 10.5088C16.7911 10.5088 10.0747 17.2085 10.0747 25.4713C10.0747 33.4017 16.2756 39.9181 24.0891 40.4007C24.4049 40.4174 24.721 40.4339 25.0372 40.4339ZM23.3747 35.3298V33.7504C21.6788 33.5842 20.0664 32.8194 18.8693 31.5892C18.221 30.9409 18.221 29.877 18.886 29.245C19.5343 28.5967 20.5819 28.5967 21.2302 29.2617C21.9783 30.0098 23.0255 30.4588 24.0899 30.4588H26.7002C27.6146 30.4588 28.3627 29.7107 28.3627 28.7963C28.3627 27.8653 27.6146 27.1338 26.7002 27.1338H23.3752C20.6321 27.1338 18.3877 24.8894 18.3877 22.1463C18.3877 19.3865 20.6321 17.1588 23.3752 17.1588V15.5961C23.3752 14.6818 24.1233 13.9336 25.0377 13.9336C25.9521 13.9336 26.7002 14.6818 26.7002 15.5961V17.1922C28.3962 17.3418 29.9588 18.0569 31.189 19.2704C31.854 19.902 31.854 20.9663 31.2057 21.6146C30.5574 22.2796 29.5097 22.2796 28.8614 21.6313C28.0966 20.8832 27.0991 20.4843 26.0352 20.4843H23.3752C22.4608 20.4843 21.7127 21.2157 21.7127 22.1468C21.7127 23.0611 22.4608 23.8093 23.3752 23.8093H26.7002C29.4433 23.8093 31.6877 26.0369 31.6877 28.7968C31.6877 31.5399 29.4433 33.7843 26.7002 33.7843V35.3303C26.7002 36.2613 25.9521 36.9928 25.0377 36.9928C24.1233 36.9928 23.3747 36.2608 23.3747 35.3298Z" fill="white"/>
<path d="M1.66355 2.44532C1.66355 3.50923 2.5282 4.37392 3.59215 4.37392H29.7429C30.8235 4.37392 31.6882 3.50927 31.6882 2.44532C31.6882 1.36469 30.8236 0.5 29.7429 0.5H3.5912C2.52729 0.5 1.66355 1.36466 1.66355 2.44532Z" fill="white"/>
<path d="M3.5912 29.3115C2.52729 29.3115 1.6626 30.1762 1.6626 31.2568C1.6626 31.7723 1.86225 32.2711 2.24447 32.6533C2.57698 33.0025 3.07573 33.2017 3.5912 33.2017H8.46215C7.89698 31.9716 7.44793 30.6745 7.14887 29.3116L3.5912 29.3115Z" fill="white"/>
<path d="M1.92856 25.9862H6.76655C6.74985 25.82 6.74985 25.637 6.74985 25.4708C6.74985 24.3237 6.84968 23.2097 7.06565 22.1123H1.9286C0.864693 22.1123 0 22.977 0 24.0576C0 24.5731 0.199653 25.0551 0.581877 25.4373C0.914379 25.7865 1.41309 25.9862 1.92856 25.9862Z" fill="white"/>
<path d="M5.25381 14.9141C4.1899 14.9141 3.3252 15.7787 3.3252 16.8427C3.3252 17.3581 3.52486 17.8569 3.89038 18.2061C4.25628 18.5883 4.73833 18.788 5.25382 18.788H8.01367C8.54582 17.4083 9.26056 16.1113 10.1085 14.9145L5.25381 14.9141Z" fill="white"/>
<path d="M20.732 7.69873H1.9286C0.864694 7.69873 0 8.56338 0 9.64405C0 10.1595 0.199653 10.6583 0.581877 11.0405C0.914379 11.3897 1.41313 11.5889 1.9286 11.5889H13.1339C15.2952 9.72674 17.8891 8.38045 20.732 7.69873Z" fill="white"/>
</g>
<defs>
<clipPath id="clip0_449_1669">
<rect width="40" height="40" fill="white" transform="translate(0 0.5)"/>
</clipPath>
</defs>
</svg>
