<svg width="40" height="29" viewBox="0 0 40 29" fill="none" xmlns="http://www.w3.org/2000/svg">
<path d="M37.4028 3.89582C36.9122 3.89673 36.4326 4.03668 36.019 4.29941C35.605 4.56212 35.2743 4.93672 35.065 5.38016V2.5972C35.065 1.66909 34.57 0.811697 33.766 0.34787C32.9624 -0.115957 31.9722 -0.115957 31.1688 0.34787C30.3652 0.811697 29.8702 1.6692 29.8702 2.5972V11.6884H10.1297V2.5972C10.1297 1.66909 9.63463 0.811697 8.83111 0.34787C8.02756 -0.115957 7.03737 -0.115957 6.23391 0.34787C5.43044 0.811697 4.93531 1.6692 4.93531 2.5972V5.38016C4.5965 4.66449 3.94968 4.14267 3.1788 3.96328C2.40787 3.78391 1.59703 3.96691 0.977939 4.46018C0.358753 4.953 -0.00180213 5.70173 6.79588e-06 6.49348V22.0781C-0.00180503 22.8698 0.358753 23.6185 0.977939 24.1118C1.59712 24.6046 2.40792 24.7876 3.1788 24.6083C3.94972 24.4289 4.59695 23.9071 4.93531 23.1914V25.9743C4.93531 26.9025 5.43039 27.7599 6.23391 28.2237C7.03743 28.6875 8.02764 28.6875 8.83111 28.2237C9.63465 27.7599 10.1297 26.9023 10.1297 25.9743V16.8831H29.8702V25.9743C29.8702 26.9025 30.3653 27.7599 31.1688 28.2237C31.9723 28.6875 32.9625 28.6875 33.766 28.2237C34.57 27.7599 35.065 26.9023 35.065 25.9743V23.1914C35.4034 23.9071 36.0502 24.4289 36.8212 24.6083C37.5921 24.7876 38.403 24.6046 39.0221 24.1114C39.6412 23.6185 40.0018 22.8698 40 22.0781V6.49348C40 5.80454 39.7264 5.14363 39.239 4.65673C38.7521 4.1698 38.0913 3.89582 37.4028 3.89582Z" fill="white"/>
</svg>
