<svg width="40" height="41" viewBox="0 0 40 41" fill="none" xmlns="http://www.w3.org/2000/svg">
<g clip-path="url(#clip0_462_1786)">
<mask id="mask0_462_1786" style="mask-type:luminance" maskUnits="userSpaceOnUse" x="0" y="0" width="40" height="41">
<path d="M40 0.5H0V40.275H40V0.5Z" fill="white"/>
</mask>
<g mask="url(#mask0_462_1786)">
<path fill-rule="evenodd" clip-rule="evenodd" d="M2.97647 0.5H22.0958C22.9766 0.5 23.6768 0.863251 24.2062 1.19826C24.7374 1.72947 25.0881 2.25977 25.0881 2.95893V37.815C25.0881 38.1784 24.9063 38.3463 24.9063 38.5132H26.1359C26.1359 38.5132 26.1359 38.5132 26.1359 38.3463V26.9422C26.1359 26.4391 26.3165 26.075 26.6671 25.74C27.0167 25.3767 27.5461 25.2087 28.0645 25.2087H36.4913C37.0225 25.2087 37.5391 25.3767 37.9025 25.74C38.2521 26.0748 38.4201 26.4391 38.4201 26.9422V38.3463C38.4201 38.5132 38.4201 38.5132 38.4201 38.5132H39.4679C39.8311 38.5132 40.0002 38.6812 40.0002 39.0444V39.9116C40.0002 40.1069 39.8311 40.2748 39.4679 40.2748H22.6272C22.4592 40.2748 22.2776 40.2748 22.096 40.2748H2.97647C2.11025 40.2748 1.41199 40.1069 0.880787 39.5756C0.34958 39.2124 0 38.5132 0 37.815V2.95893C0 2.25977 0.34958 1.72947 0.880787 1.19826C1.41199 0.863251 2.11025 0.5 2.97647 0.5ZM34.8984 28.3668H33.4999C33.333 28.3668 33.1651 28.3668 33.1651 28.5348L32.9698 28.7017V30.1002L33.1651 30.2956C33.1651 30.4634 33.333 30.4634 33.4999 30.4634H34.8984C35.0939 30.4634 35.0939 30.4634 35.2618 30.2956V30.1002V28.7017V28.5348C35.0939 28.3668 35.0939 28.3668 34.8984 28.3668ZM31.2374 34.8247H29.6437C29.4758 34.8247 29.4758 34.8247 29.3089 35.0201C29.3089 35.0201 29.3089 35.1879 29.3089 35.3823V36.5845C29.3089 36.7808 29.3089 36.7808 29.3089 36.9468C29.4758 36.9468 29.4758 36.9468 29.6437 36.9468H31.2374H31.4044C31.4044 36.7808 31.5713 36.7808 31.5713 36.5845V35.3823C31.5713 35.1879 31.4044 35.0201 31.4044 35.0201C31.4044 34.8247 31.2374 34.8247 31.2374 34.8247ZM34.8984 34.8247H33.4999C33.333 34.8247 33.1651 34.8247 33.1651 35.0201C33.1651 35.0201 32.9698 35.1879 32.9698 35.3823V36.5845C32.9698 36.7808 33.1651 36.7808 33.1651 36.9468C33.1651 36.9468 33.333 36.9468 33.4999 36.9468H34.8984C35.0939 36.9468 35.0939 36.9468 35.2618 36.9468C35.2618 36.7808 35.2618 36.7808 35.2618 36.5845V35.3823C35.2618 35.1879 35.2618 35.0201 35.2618 35.0201C35.0939 34.8247 35.0939 34.8247 34.8984 34.8247ZM31.2374 31.693H29.6437C29.4758 31.693 29.4758 31.693 29.3089 31.693C29.3089 31.8601 29.3089 31.8601 29.3089 32.0289V33.2586C29.3089 33.4255 29.3089 33.6218 29.3089 33.6218C29.4758 33.6218 29.4758 33.7887 29.6437 33.7887H31.2374L31.4044 33.6218C31.4044 33.6218 31.5713 33.4255 31.5713 33.2586V32.0289C31.5713 31.8601 31.4044 31.8601 31.4044 31.693H31.2374ZM34.8984 31.693H33.4999C33.333 31.693 33.1651 31.693 33.1651 31.693C33.1651 31.8601 32.9698 31.8601 32.9698 32.0289V33.2586C32.9698 33.4255 33.1651 33.6218 33.1651 33.6218C33.1651 33.6218 33.333 33.7887 33.4999 33.7887H34.8984C35.0939 33.7887 35.0939 33.6218 35.2618 33.6218C35.2618 33.6218 35.2618 33.4255 35.2618 33.2586V32.0289C35.2618 31.8601 35.2618 31.8601 35.2618 31.693C35.0939 31.693 35.0939 31.693 34.8984 31.693ZM31.2374 28.3668H29.6437C29.4758 28.3668 29.4758 28.3668 29.3089 28.5348V28.7017V30.1002V30.2956C29.4758 30.4634 29.4758 30.4634 29.6437 30.4634H31.2374C31.2374 30.4634 31.4044 30.4634 31.4044 30.2956L31.5713 30.1002V28.7017L31.4044 28.5348C31.4044 28.3668 31.2374 28.3668 31.2374 28.3668ZM9.82611 11.5409H6.13516C5.78663 11.5409 5.61958 11.5409 5.43705 11.7079C5.2691 11.9043 5.08747 12.2391 5.08747 12.4071V15.034C5.08747 15.3972 5.2691 15.5652 5.43705 15.7321C5.61958 15.9284 5.78663 15.9284 6.13516 15.9284H9.82611C9.99301 15.9284 10.3558 15.9284 10.5239 15.7321C10.7075 15.5652 10.8735 15.3972 10.8735 15.034V12.4071C10.8735 12.2391 10.7075 11.9041 10.5239 11.7079C10.3558 11.5409 9.99301 11.5409 9.82611 11.5409ZM9.82611 4.88771H6.13516C5.78663 4.88771 5.61958 4.88771 5.43705 5.05476C5.2691 5.22272 5.08747 5.58747 5.08747 5.75392V8.38231C5.08747 8.74556 5.2691 8.91247 5.43705 9.08042C5.61958 9.24838 5.78663 9.24838 6.13516 9.24838H9.82611C9.99301 9.24838 10.3558 9.24838 10.5239 9.08042C10.7075 8.91247 10.8735 8.74556 10.8735 8.38231V5.75392C10.8735 5.58747 10.7075 5.22272 10.5239 5.05476C10.3558 4.88771 9.99301 4.88771 9.82611 4.88771ZM18.9525 4.88771H15.2621C15.0952 4.88771 14.7318 4.88771 14.5639 5.05476C14.3822 5.22272 14.2143 5.58747 14.2143 5.75392V8.38231C14.2143 8.74556 14.3822 8.91247 14.5639 9.08042C14.7318 9.24838 15.0952 9.24838 15.2621 9.24838H18.9525C19.301 9.24838 19.4689 9.24838 19.6506 9.08042C19.8185 8.91247 20.0002 8.74556 20.0002 8.38231V5.75392C20.0002 5.58747 19.8185 5.22272 19.6506 5.05476C19.4689 4.88771 19.301 4.88771 18.9525 4.88771ZM9.82611 31.526H6.13516C5.78663 31.526 5.61958 31.6929 5.43705 31.8601C5.2691 32.0289 5.08747 32.2242 5.08747 32.3922V35.0201C5.08747 35.3823 5.2691 35.5513 5.43705 35.7173C5.61958 35.8863 5.78663 36.0543 6.13516 36.0543H9.82611C9.99301 36.0543 10.3558 35.8863 10.5239 35.7173C10.7075 35.5515 10.8735 35.3825 10.8735 35.0201V32.3922C10.8735 32.2242 10.7075 32.0289 10.5239 31.8601C10.3558 31.693 9.99301 31.526 9.82611 31.526ZM18.9525 31.526H15.2621C15.0952 31.526 14.7318 31.6929 14.5639 31.8601C14.3822 32.0289 14.2143 32.2242 14.2143 32.3922V35.0201C14.2143 35.3823 14.3822 35.5513 14.5639 35.7173C14.7318 35.8863 15.0952 36.0543 15.2621 36.0543H18.9525C19.301 36.0543 19.4689 35.8863 19.6506 35.7173C19.8185 35.5515 20.0002 35.3825 20.0002 35.0201V32.3922C20.0002 32.2242 19.8185 32.0289 19.6506 31.8601C19.4689 31.693 19.301 31.526 18.9525 31.526ZM9.82611 24.8455H6.13516C5.78663 24.8455 5.61958 25.0408 5.43705 25.2087C5.2691 25.2087 5.08747 25.572 5.08747 25.74V28.3668C5.08747 28.7017 5.2691 28.8698 5.43705 29.0649C5.61958 29.234 5.78663 29.234 6.13516 29.234H9.82611C9.99301 29.234 10.3558 29.234 10.5239 29.0649C10.7075 28.8696 10.8735 28.7017 10.8735 28.3668V25.74C10.8735 25.572 10.7075 25.2087 10.5239 25.2087C10.3558 25.0406 9.99301 24.8455 9.82611 24.8455ZM18.9525 24.8455H15.2621C15.0952 24.8455 14.7318 25.0408 14.5639 25.2087C14.3822 25.2087 14.2143 25.572 14.2143 25.74V28.3668C14.2143 28.7017 14.3822 28.8698 14.5639 29.0649C14.7318 29.234 15.0952 29.234 15.2621 29.234H18.9525C19.301 29.234 19.4689 29.234 19.6506 29.0649C19.8185 28.8696 20.0002 28.7017 20.0002 28.3668V25.74C20.0002 25.572 19.8185 25.2087 19.6506 25.2087C19.4689 25.0406 19.301 24.8455 18.9525 24.8455ZM9.82611 18.1922H6.13516C5.78663 18.1922 5.61958 18.3602 5.43705 18.3602C5.2691 18.5565 5.08747 18.8905 5.08747 19.0595V21.7156C5.08747 22.0496 5.2691 22.2186 5.43705 22.4129C5.61958 22.5819 5.78663 22.5819 6.13516 22.5819H9.82611C9.99301 22.5819 10.3558 22.5819 10.5239 22.4129C10.7075 22.2186 10.8735 22.0496 10.8735 21.7156V19.0595C10.8735 18.8905 10.7075 18.5565 10.5239 18.3602C10.3558 18.3602 9.99301 18.1922 9.82611 18.1922ZM18.9525 18.1922H15.2621C15.0952 18.1922 14.7318 18.3602 14.5639 18.3602C14.3822 18.5565 14.2143 18.8905 14.2143 19.0595V21.7156C14.2143 22.0496 14.3822 22.2186 14.5639 22.4129C14.7318 22.5819 15.0952 22.5819 15.2621 22.5819H18.9525C19.301 22.5819 19.4689 22.5819 19.6506 22.4129C19.8185 22.2186 20.0002 22.0496 20.0002 21.7156V19.0595C20.0002 18.8905 19.8185 18.5565 19.6506 18.3602C19.4689 18.3602 19.301 18.1922 18.9525 18.1922ZM18.9525 11.5409H15.2621C15.0952 11.5409 14.7318 11.5409 14.5639 11.7079C14.3822 11.9043 14.2143 12.2391 14.2143 12.4071V15.034C14.2143 15.3972 14.3822 15.5652 14.5639 15.7321C14.7318 15.9284 15.0952 15.9284 15.2621 15.9284H18.9525C19.301 15.9284 19.4689 15.9284 19.6506 15.7321C19.8185 15.5652 20.0002 15.3972 20.0002 15.034V12.4071C20.0002 12.2391 19.8185 11.9041 19.6506 11.7079C19.4689 11.5409 19.301 11.5409 18.9525 11.5409Z" fill="white"/>
</g>
</g>
<defs>
<clipPath id="clip0_462_1786">
<rect width="40" height="40" fill="white" transform="translate(0 0.5)"/>
</clipPath>
</defs>
</svg>
