<svg width="39" height="41" viewBox="0 0 39 41" fill="none" xmlns="http://www.w3.org/2000/svg">
<path d="M25.1359 13.027C27.0692 6.43229 27.9284 0.875751 25.5952 0.250591C23.0368 -0.434949 21.047 4.10433 19.3373 11.257L0.226074 16.5489L0.833654 18.7682L6.41136 18.8689C6.35386 19.3914 6.33186 19.9451 6.36816 20.5236L7.17576 20.74C7.17576 20.74 7.74246 20.0688 8.18756 18.9007L13.4565 18.9972C13.3667 19.6102 13.3252 20.2717 13.3704 20.9684L14.1799 21.1853C14.1799 21.1853 14.8415 20.3896 15.2933 19.03L17.7321 19.0744C16.9625 23.3472 16.2383 28.0513 15.5274 32.8769L9.94836 36.183L9.96107 37.4725L15.1666 36.5044L16.192 36.7792C16.192 36.7792 16.2087 36.7454 16.2163 36.7245L20.3449 40.2545L21.0007 39.1441L17.6962 33.2687C18.9883 30.1908 20.9129 25.4517 22.6797 20.5003L25.0192 21.7945C24.7744 23.1228 24.9421 24.0685 24.9421 24.0685L25.7516 24.2855C26.106 23.75 26.3855 23.2061 26.6048 22.6731L31.2542 25.2456C31.0931 26.3894 31.2286 27.1845 31.2286 27.1845L32.0381 27.4014C32.3289 26.9657 32.5707 26.5215 32.7704 26.084L37.1138 28.4893L38.7496 26.8712L25.1359 13.027Z" fill="white"/>
<path d="M6.72789 23.0542L7.61779 23.2926L5.03439 32.934L4.14453 32.6955L6.72789 23.0542Z" fill="white"/>
<path d="M11.1698 22.4951L12.0596 22.7335L9.87369 30.8914L8.98389 30.653L11.1698 22.4951Z" fill="white"/>
<path d="M28.976 29.0156L29.8658 29.2541L27.2824 38.8954L26.3926 38.657L28.976 29.0156Z" fill="white"/>
<path d="M25.4086 26.3105L26.2984 26.549L24.1125 34.7069L23.2227 34.4684L25.4086 26.3105Z" fill="white"/>
</svg>
